<svg xmlns="http://www.w3.org/2000/svg" xmlns:xlink="http://www.w3.org/1999/xlink" width="228.926" height="64.081" viewBox="0 0 228.926 64.081">
  <defs>
    <linearGradient id="linear-gradient" x1="-0.129" y1="0.5" x2="1.217" y2="0.5" gradientUnits="objectBoundingBox">
      <stop offset="0" stop-color="#fd4e4e"/>
      <stop offset="1" stop-color="#4e4eff"/>
    </linearGradient>
  </defs>
  <path id="Path_42" data-name="Path 42" d="M36.516,14.648h9.351L28.265-34.96h-10L.659,14.648H9.8L14.032,1.825H32.287ZM23.04-26.194h.241L30.19-5.017H16.1ZM50.3,14.648h8.56V-6.564c0-5.122,2.922-8.251,7.77-8.251a10.865,10.865,0,0,1,3.472.481v-7.735a12.167,12.167,0,0,0-2.682-.344c-4.3,0-7.495,2.544-8.732,6.979h-.172v-6.36H50.3ZM76.876-30.319v8.526H71.651v6.6h5.226V4.953c0,7.082,3.094,9.867,10.967,9.867a23.537,23.537,0,0,0,4.435-.344V7.944a16.6,16.6,0,0,1-2.441.172c-3.025,0-4.4-1.375-4.4-4.366V-15.193h6.876v-6.6H85.437v-8.526ZM98.328,14.648h8.56V-21.793h-8.56Zm4.263-41.22a4.675,4.675,0,0,0,4.779-4.641,4.682,4.682,0,0,0-4.779-4.675,4.674,4.674,0,0,0-4.744,4.675A4.667,4.667,0,0,0,102.591-26.572Zm10.829,15.23c0,5.26,3.4,8.767,10.142,10.348L130.2.553c3.541.894,4.882,2.028,4.882,4.16,0,2.716-2.578,4.4-6.738,4.4-4.332,0-6.91-1.856-7.426-5.191h-8.423c.584,6.91,6.394,11.448,15.539,11.448,9.213,0,15.573-4.641,15.573-11.517,0-5.4-2.853-8.216-10.142-9.935l-6.5-1.444c-3.575-.859-5.226-2.235-5.226-4.3,0-2.647,2.475-4.435,6.257-4.435,3.988,0,6.5,1.925,6.773,5.054h7.976c-.206-6.738-6.016-11.345-14.576-11.345C119.3-22.55,113.421-18.012,113.421-11.342Zm38.023-18.977v8.526h-5.226v6.6h5.226V4.953c0,7.082,3.094,9.867,10.967,9.867a23.537,23.537,0,0,0,4.435-.344V7.944a16.6,16.6,0,0,1-2.441.172c-3.025,0-4.4-1.375-4.4-4.366V-15.193h6.876v-6.6H160v-8.526Zm21.246,44.967h8.56V-6.564c0-5.122,2.922-8.251,7.77-8.251a10.865,10.865,0,0,1,3.472.481v-7.735a12.167,12.167,0,0,0-2.682-.344c-4.3,0-7.495,2.544-8.732,6.979h-.172v-6.36h-8.216Zm28.259,13.545c8.32,0,12.342-3.06,15.47-12.1l13.167-37.885h-9.007L211.984,7.359h-.138l-8.595-29.153H193.9l12.961,36.476c.034.1-.481,1.925-.481,2.028-.963,3.369-2.785,4.71-6.326,4.71a19.2,19.2,0,0,1-2.475-.138v6.773C198.026,28.158,200.467,28.193,200.948,28.193Z" transform="translate(-0.659 35.889)" fill="url(#linear-gradient)"/>
</svg>
