<?xml version="1.0" encoding="UTF-8" standalone="no"?>
<!DOCTYPE svg PUBLIC "-//W3C//DTD SVG 1.1//EN" "http://www.w3.org/Graphics/SVG/1.1/DTD/svg11.dtd">
<svg width="100%" height="100%" viewBox="0 0 14400 7200" version="1.1" xmlns="http://www.w3.org/2000/svg" xmlns:xlink="http://www.w3.org/1999/xlink" xml:space="preserve" xmlns:serif="http://www.serif.com/" style="fill-rule:evenodd;clip-rule:evenodd;stroke-linecap:round;stroke-linejoin:round;stroke-miterlimit:1.5;">
    <g id="Top">
        <g transform="matrix(1.05771,0,0,0.271196,-456.914,23.3007)">
            <path d="M4273.3,901.42C4273.3,672.47 4225.64,486.591 4166.93,486.591L692.442,486.591C633.739,486.591 586.08,672.47 586.08,901.42L586.08,1731.08C586.08,1960.03 633.739,2145.91 692.442,2145.91L4166.93,2145.91C4225.64,2145.91 4273.3,1960.03 4273.3,1731.08L4273.3,901.42Z" style="fill:none;stroke:rgb(255,0,0);stroke-width:5.4px;"/>
        </g>
        <g transform="matrix(0.385715,0,0,0.385715,217.414,-128.103)">
            <circle cx="1012.09" cy="1317.98" r="91.863" style="fill:none;stroke:rgb(255,0,0);stroke-width:10.8px;"/>
        </g>
        <g transform="matrix(0.81643,0,0,0.81643,-475.811,-695.777)">
            <circle cx="1012.09" cy="1317.98" r="91.863" style="fill:none;stroke:rgb(255,0,0);stroke-width:5.1px;"/>
        </g>
        <g transform="matrix(0.81643,0,0,0.81643,3049.19,-695.777)">
            <circle cx="1012.09" cy="1317.98" r="91.863" style="fill:none;stroke:rgb(255,0,0);stroke-width:5.1px;"/>
        </g>
        <g transform="matrix(0.385715,0,0,0.385715,468.28,-128.103)">
            <circle cx="1012.09" cy="1317.98" r="91.863" style="fill:none;stroke:rgb(255,0,0);stroke-width:10.8px;"/>
        </g>
        <g transform="matrix(0.385715,0,0,0.385715,719.146,-128.103)">
            <circle cx="1012.09" cy="1317.98" r="91.863" style="fill:none;stroke:rgb(255,0,0);stroke-width:10.8px;"/>
        </g>
        <g transform="matrix(0.385715,0,0,0.385715,970.012,-128.103)">
            <circle cx="1012.09" cy="1317.98" r="91.863" style="fill:none;stroke:rgb(255,0,0);stroke-width:10.8px;"/>
        </g>
        <g transform="matrix(0.385715,0,0,0.385715,1220.88,-128.103)">
            <circle cx="1012.09" cy="1317.98" r="91.863" style="fill:none;stroke:rgb(255,0,0);stroke-width:10.8px;"/>
        </g>
        <g transform="matrix(0.385715,0,0,0.385715,1471.74,-128.103)">
            <circle cx="1012.09" cy="1317.98" r="91.863" style="fill:none;stroke:rgb(255,0,0);stroke-width:10.8px;"/>
        </g>
        <g transform="matrix(0.385715,0,0,0.385715,1722.61,-128.103)">
            <circle cx="1012.09" cy="1317.98" r="91.863" style="fill:none;stroke:rgb(255,0,0);stroke-width:10.8px;"/>
        </g>
        <g transform="matrix(0.385715,0,0,0.385715,1973.48,-128.103)">
            <circle cx="1012.09" cy="1317.98" r="91.863" style="fill:none;stroke:rgb(255,0,0);stroke-width:10.8px;"/>
        </g>
        <g transform="matrix(0.385715,0,0,0.385715,2224.34,-128.103)">
            <circle cx="1012.09" cy="1317.98" r="91.863" style="fill:none;stroke:rgb(255,0,0);stroke-width:10.8px;"/>
        </g>
        <g transform="matrix(0.385715,0,0,0.385715,2475.21,-128.103)">
            <circle cx="1012.09" cy="1317.98" r="91.863" style="fill:none;stroke:rgb(255,0,0);stroke-width:10.8px;"/>
        </g>
        <g transform="matrix(0.385715,0,0,0.385715,2726.08,-128.103)">
            <circle cx="1012.09" cy="1317.98" r="91.863" style="fill:none;stroke:rgb(255,0,0);stroke-width:10.8px;"/>
        </g>
        <g transform="matrix(0.385715,0,0,0.385715,2976.94,-128.103)">
            <circle cx="1012.09" cy="1317.98" r="91.863" style="fill:none;stroke:rgb(255,0,0);stroke-width:10.8px;"/>
        </g>
        <g transform="matrix(0.385715,0,0,0.385715,3227.81,-128.103)">
            <circle cx="1012.09" cy="1317.98" r="91.863" style="fill:none;stroke:rgb(255,0,0);stroke-width:10.8px;"/>
        </g>
    </g>
    <g id="Bottom">
        <g transform="matrix(0.81643,0,0,0.81643,-475.811,-115.159)">
            <circle cx="1012.09" cy="1317.98" r="91.863" style="fill:none;stroke:rgb(255,0,0);stroke-width:5.1px;"/>
        </g>
        <g transform="matrix(0.81643,0,0,0.81643,3049.19,-115.159)">
            <circle cx="1012.09" cy="1317.98" r="91.863" style="fill:none;stroke:rgb(255,0,0);stroke-width:5.1px;"/>
        </g>
        <g transform="matrix(1.05771,0,0,0.271196,-456.914,603.919)">
            <path d="M4273.3,901.42C4273.3,672.47 4225.64,486.591 4166.93,486.591L692.442,486.591C633.739,486.591 586.08,672.47 586.08,901.42L586.08,1731.08C586.08,1960.03 633.739,2145.91 692.442,2145.91L4166.93,2145.91C4225.64,2145.91 4273.3,1960.03 4273.3,1731.08L4273.3,901.42Z" style="fill:none;stroke:rgb(255,0,0);stroke-width:5.4px;"/>
        </g>
        <g transform="matrix(0.863667,0,0,0.863667,-869.93,-2466.91)">
            <circle cx="1710.98" cy="3947.98" r="10.421" style="fill:none;stroke:rgb(255,0,0);stroke-width:4.82px;"/>
        </g>
        <g transform="matrix(0.863667,0,0,0.863667,-869.93,-2431.12)">
            <circle cx="1710.98" cy="3947.98" r="10.421" style="fill:none;stroke:rgb(255,0,0);stroke-width:4.82px;"/>
        </g>
        <g transform="matrix(0.863667,0,0,0.863667,-619.064,-2466.91)">
            <circle cx="1710.98" cy="3947.98" r="10.421" style="fill:none;stroke:rgb(255,0,0);stroke-width:4.82px;"/>
        </g>
        <g transform="matrix(0.863667,0,0,0.863667,-619.064,-2431.12)">
            <circle cx="1710.98" cy="3947.98" r="10.421" style="fill:none;stroke:rgb(255,0,0);stroke-width:4.82px;"/>
        </g>
        <g transform="matrix(0.863667,0,0,0.863667,-368.198,-2466.91)">
            <circle cx="1710.98" cy="3947.98" r="10.421" style="fill:none;stroke:rgb(255,0,0);stroke-width:4.82px;"/>
        </g>
        <g transform="matrix(0.863667,0,0,0.863667,-368.198,-2431.12)">
            <circle cx="1710.98" cy="3947.98" r="10.421" style="fill:none;stroke:rgb(255,0,0);stroke-width:4.82px;"/>
        </g>
        <g transform="matrix(0.863667,0,0,0.863667,-117.332,-2466.91)">
            <circle cx="1710.98" cy="3947.98" r="10.421" style="fill:none;stroke:rgb(255,0,0);stroke-width:4.82px;"/>
        </g>
        <g transform="matrix(0.863667,0,0,0.863667,-117.332,-2431.12)">
            <circle cx="1710.98" cy="3947.98" r="10.421" style="fill:none;stroke:rgb(255,0,0);stroke-width:4.82px;"/>
        </g>
        <g transform="matrix(0.863667,0,0,0.863667,133.534,-2466.91)">
            <circle cx="1710.98" cy="3947.98" r="10.421" style="fill:none;stroke:rgb(255,0,0);stroke-width:4.82px;"/>
        </g>
        <g transform="matrix(0.863667,0,0,0.863667,133.534,-2431.12)">
            <circle cx="1710.98" cy="3947.98" r="10.421" style="fill:none;stroke:rgb(255,0,0);stroke-width:4.82px;"/>
        </g>
        <g transform="matrix(0.863667,0,0,0.863667,384.401,-2466.91)">
            <circle cx="1710.98" cy="3947.98" r="10.421" style="fill:none;stroke:rgb(255,0,0);stroke-width:4.82px;"/>
        </g>
        <g transform="matrix(0.863667,0,0,0.863667,384.401,-2431.12)">
            <circle cx="1710.98" cy="3947.98" r="10.421" style="fill:none;stroke:rgb(255,0,0);stroke-width:4.82px;"/>
        </g>
        <g transform="matrix(0.863667,0,0,0.863667,635.267,-2466.91)">
            <circle cx="1710.98" cy="3947.98" r="10.421" style="fill:none;stroke:rgb(255,0,0);stroke-width:4.82px;"/>
        </g>
        <g transform="matrix(0.863667,0,0,0.863667,635.267,-2431.12)">
            <circle cx="1710.98" cy="3947.98" r="10.421" style="fill:none;stroke:rgb(255,0,0);stroke-width:4.82px;"/>
        </g>
        <g transform="matrix(0.863667,0,0,0.863667,886.133,-2466.91)">
            <circle cx="1710.98" cy="3947.98" r="10.421" style="fill:none;stroke:rgb(255,0,0);stroke-width:4.82px;"/>
        </g>
        <g transform="matrix(0.863667,0,0,0.863667,886.133,-2431.12)">
            <circle cx="1710.98" cy="3947.98" r="10.421" style="fill:none;stroke:rgb(255,0,0);stroke-width:4.82px;"/>
        </g>
        <g transform="matrix(0.863667,0,0,0.863667,1137,-2466.91)">
            <circle cx="1710.98" cy="3947.98" r="10.421" style="fill:none;stroke:rgb(255,0,0);stroke-width:4.82px;"/>
        </g>
        <g transform="matrix(0.863667,0,0,0.863667,1137,-2431.12)">
            <circle cx="1710.98" cy="3947.98" r="10.421" style="fill:none;stroke:rgb(255,0,0);stroke-width:4.82px;"/>
        </g>
        <g transform="matrix(0.863667,0,0,0.863667,1387.87,-2466.91)">
            <circle cx="1710.98" cy="3947.98" r="10.421" style="fill:none;stroke:rgb(255,0,0);stroke-width:4.82px;"/>
        </g>
        <g transform="matrix(0.863667,0,0,0.863667,1387.87,-2431.12)">
            <circle cx="1710.98" cy="3947.98" r="10.421" style="fill:none;stroke:rgb(255,0,0);stroke-width:4.82px;"/>
        </g>
        <g transform="matrix(0.863667,0,0,0.863667,1638.73,-2466.91)">
            <circle cx="1710.98" cy="3947.98" r="10.421" style="fill:none;stroke:rgb(255,0,0);stroke-width:4.82px;"/>
        </g>
        <g transform="matrix(0.863667,0,0,0.863667,1638.73,-2431.12)">
            <circle cx="1710.98" cy="3947.98" r="10.421" style="fill:none;stroke:rgb(255,0,0);stroke-width:4.82px;"/>
        </g>
        <g transform="matrix(0.863667,0,0,0.863667,1889.6,-2466.91)">
            <circle cx="1710.98" cy="3947.98" r="10.421" style="fill:none;stroke:rgb(255,0,0);stroke-width:4.82px;"/>
        </g>
        <g transform="matrix(0.863667,0,0,0.863667,1889.6,-2431.12)">
            <circle cx="1710.98" cy="3947.98" r="10.421" style="fill:none;stroke:rgb(255,0,0);stroke-width:4.82px;"/>
        </g>
        <g transform="matrix(0.863667,0,0,0.863667,2140.46,-2466.91)">
            <circle cx="1710.98" cy="3947.98" r="10.421" style="fill:none;stroke:rgb(255,0,0);stroke-width:4.82px;"/>
        </g>
        <g transform="matrix(0.863667,0,0,0.863667,2140.46,-2431.12)">
            <circle cx="1710.98" cy="3947.98" r="10.421" style="fill:none;stroke:rgb(255,0,0);stroke-width:4.82px;"/>
        </g>
    </g>
</svg>
